SplineFontDB: 3.0
FontName: Topmarks-Book
FullName: Topmarks Book
FamilyName: Topmarks
Weight: Medium
Copyright: Copyright (c) 2012-13 by vernon adams. All rights reserved.
Version: 
ItalicAngle: 0
UnderlinePosition: 0
UnderlineWidth: 0
Ascent: 1638
Descent: 410
UFOAscent: 1638
UFODescent: -410
LayerCount: 2
Layer: 0 0 "Back"  1
Layer: 1 0 "Fore"  0
OS2Version: 0
OS2_WeightWidthSlopeOnly: 0
OS2_UseTypoMetrics: 0
CreationTime: 1363715647
ModificationTime: 1363715698
PfmFamily: 0
TTFWeight: 400
TTFWidth: 5
LineGap: 0
VLineGap: 0
OS2TypoAscent: 1960
OS2TypoAOffset: 0
OS2TypoDescent: -625
OS2TypoDOffset: 0
OS2TypoLinegap: 0
OS2WinAscent: 1960
OS2WinAOffset: 0
OS2WinDescent: 625
OS2WinDOffset: 0
HheadAscent: 0
HheadAOffset: 1
HheadDescent: 0
HheadDOffset: 1
OS2Vendor: 'newt'
Lookup: 258 0 0 "'kern' Horizontal Kerning in Latin lookup 0"  {"'kern' Horizontal Kerning in Latin lookup 0 subtable" [307,30,0] "kernHorizontalKerninglookup1 kerning class 1" [307,0,0] } ['kern' ('latn' <'dflt' > ) ]
Lookup: 260 0 0 "markMarkPositioninglookup0"  {"markMarkPositioninglookup0 subtable"  } ['mark' ('latn' <'dflt' > 'grek' <'dflt' > 'DFLT' <'dflt' > ) ]
MarkAttachClasses: 1
DEI: 91125
KernClass2: 15 22 "kernHorizontalKerninglookup1 kerning class 1" 
 89 A Aacute Abreve Acircumflex Adieresis Agrave Amacron Aogonek Aring Atilde uni0200 uni0202
 1 D
 1 F
 14 G Gcommaaccent
 1 K
 1 L
 1 P
 9 T uni021A
 1 V
 1 W
 18 Y Yacute Ydieresis
 24 c cacute ccaron ccedilla
 60 o oacute ocircumflex odieresis ograve otilde uni020D uni020F
 37 r rcaron rcommaaccent uni0211 uni0213
 89 A Aacute Abreve Acircumflex Adieresis Agrave Amacron Aogonek Aring Atilde uni0200 uni0202
 24 C Cacute Ccaron Ccedilla
 14 G Gcommaaccent
 60 O Oacute Ocircumflex Odieresis Ograve Otilde uni020C uni020E
 9 T uni021A
 1 V
 1 W
 18 Y Yacute Ydieresis
 89 a aacute abreve acircumflex adieresis agrave amacron aogonek aring atilde uni0201 uni0203
 5 comma
 69 e eacute ecircumflex edieresis egrave emacron eogonek uni0205 uni0207

StartChar: A
Encoding: 65 65 0
Width: 1385
VWidth: 0
GlyphClass: 2
Flags: W
HStem: 0 21<34 220 220 220 1160 1351 1351 1351> 395 136<421 421 421 958> 1436 20<603 781 603 603>
AnchorPoint: "top" 693 1456 basechar 0
AnchorPoint: "bottom" 736 0 basechar 0
AnchorPoint: "ogonek" 1260 0 basechar 0
LayerCount: 2
Fore
SplineSet
34 0 m 1
 220 0 l 1
 369 395 l 1
 1010 395 l 1
 1160 0 l 1
 1351 0 l 1
 781 1456 l 1
 603 1456 l 1
 34 0 l 1
421 531 m 1
 590 996 l 1
 692 1271 l 1
 788 997 l 1
 958 531 l 1
 421 531 l 1
EndSplineSet
EndChar

StartChar: B
Encoding: 66 66 1
Width: 1278
VWidth: 0
GlyphClass: 2
Flags: W
HStem: 0 138<354 610 610 616> 684 141<354 537 537 566 354 537> 1318 138<354 553 354 354>
VStem: 174 172 907 181 972 182
AnchorPoint: "top" 700 1456 basechar 0
AnchorPoint: "bottom" 676 0 basechar 0
LayerCount: 2
Fore
SplineSet
182 0 m 1
 182 1456 l 1
 553 1456 l 2
 913 1456 1096 1357 1096 1105 c 0
 1096 918 1021 823 863 769 c 1
 1059 730 1162 625 1162 403 c 0
 1162 114 949 0 616 0 c 2
 182 0 l 1
354 138 m 1
 610 138 l 2
 867 138 980 214 980 406 c 0
 980 602 863 684 566 684 c 2
 354 684 l 1
 354 138 l 1
354 825 m 1
 537 825 l 2
 808 825 915 898 915 1077 c 0
 915 1250 815 1318 553 1318 c 2
 354 1318 l 1
 354 825 l 1
EndSplineSet
EndChar

StartChar: C
Encoding: 67 67 2
Width: 1360
VWidth: 0
GlyphClass: 2
Flags: W
HStem: -22 152<646.5 885.5 646.5 891.5> 1331 152<648.5 880.5>
VStem: 112 183<546 890 546 941.5>
AnchorPoint: "top" 790 1456 basechar 0
AnchorPoint: "bottom" 826 0 basechar 0
LayerCount: 2
Fore
SplineSet
800 -22 m 0
 405 -22 112 260 112 722 c 0
 112 1161 390 1483 798 1483 c 0
 993 1483 1133 1425 1251 1332 c 1
 1173 1210 l 1
 1069 1288 945 1331 816 1331 c 0
 481 1331 295 1058 295 722 c 0
 295 370 486 130 807 130 c 0
 964 130 1098 178 1213 271 c 1
 1273 129 l 1
 1144 29 983 -22 800 -22 c 0
EndSplineSet
EndChar

StartChar: D
Encoding: 68 68 3
Width: 1495
VWidth: 0
GlyphClass: 2
Flags: W
HStem: 0 138<354 589> 1318 138<354 491 491 511 354 354>
VStem: 174 172 1194 182
AnchorPoint: "top" 700 1456 basechar 0
AnchorPoint: "bottom" 676 0 basechar 0
LayerCount: 2
Fore
SplineSet
354 138 m 1
 605 138 l 2
 975 138 1202 334 1202 721 c 0
 1202 1178 943 1318 511 1318 c 2
 354 1318 l 1
 354 138 l 1
182 0 m 1
 182 1456 l 1
 491 1456 l 2
 1017 1456 1384 1273 1384 724 c 0
 1384 241 1055 0 589 0 c 2
 182 0 l 1
EndSplineSet
EndChar

StartChar: E
Encoding: 69 69 4
Width: 1174
VWidth: 0
GlyphClass: 2
Flags: W
HStem: 0 138<354 1079 354 1079> 672 148<354 991 354 991> 1318 138<354 1029 354 354>
VStem: 174 172
AnchorPoint: "top" 656 1456 basechar 0
AnchorPoint: "bottom" 826 0 basechar 0
AnchorPoint: "ogonek" 850 0 basechar 0
LayerCount: 2
Fore
SplineSet
182 0 m 1
 182 1456 l 1
 1029 1456 l 1
 1029 1318 l 1
 354 1318 l 1
 354 820 l 1
 991 820 l 1
 991 672 l 1
 354 672 l 1
 354 138 l 1
 1079 138 l 1
 1079 0 l 1
 182 0 l 1
EndSplineSet
EndChar

StartChar: F
Encoding: 70 70 5
Width: 1093
VWidth: 0
GlyphClass: 2
Flags: W
HStem: 0 21<182 182 182 354> 667 148<354 974 354 974> 1318 138<354 1008 354 354>
VStem: 174 172
AnchorPoint: "top" 700 1456 basechar 0
AnchorPoint: "bottom" 676 0 basechar 0
LayerCount: 2
Fore
SplineSet
182 0 m 1
 182 1456 l 1
 1008 1456 l 1
 1008 1318 l 1
 354 1318 l 1
 354 815 l 1
 974 815 l 1
 974 667 l 1
 354 667 l 1
 354 0 l 1
 182 0 l 1
EndSplineSet
EndChar

StartChar: G
Encoding: 71 71 6
Width: 1476
VWidth: 0
GlyphClass: 2
Flags: W
HStem: -22 152<658 894 658 918.5> 608 149<794 1141 794 1313> 1331 152<658.5 912.5>
VStem: 112 178<529 891.5 529 933> 1141 172<178 608 608 608>
AnchorPoint: "top" 790 1456 basechar 0
AnchorPoint: "bottom" 826 0 basechar 0
LayerCount: 2
Fore
SplineSet
823 -22 m 0
 377 -22 112 239 112 701 c 0
 112 1165 388 1483 833 1483 c 0
 1036 1483 1172 1431 1288 1315 c 1
 1216 1198 l 1
 1125 1286 995 1331 830 1331 c 0
 487 1331 290 1069 290 714 c 0
 290 344 480 130 836 130 c 0
 952 130 1055 142 1141 178 c 1
 1141 608 l 1
 794 608 l 1
 794 757 l 1
 1313 757 l 1
 1313 81 l 1
 1168 13 1014 -22 823 -22 c 0
EndSplineSet
EndChar

StartChar: H
Encoding: 72 72 7
Width: 1478
VWidth: 0
GlyphClass: 2
Flags: W
HStem: 0 21<182 182 182 354 1125 1125 1125 1296> 674 148<354 1125 354 1125> 1436 20<182 354 354 354 1125 1296 1296 1296>
VStem: 174 172 1117 171
AnchorPoint: "top" 734 1456 basechar 0
AnchorPoint: "bottom" 788 0 basechar 0
LayerCount: 2
Fore
SplineSet
182 0 m 1
 182 1456 l 1
 354 1456 l 1
 354 822 l 1
 1125 822 l 1
 1125 1456 l 1
 1296 1456 l 1
 1296 0 l 1
 1125 0 l 1
 1125 674 l 1
 354 674 l 1
 354 0 l 1
 182 0 l 1
EndSplineSet
EndChar

StartChar: I
Encoding: 73 73 8
Width: 545
VWidth: 0
GlyphClass: 2
Flags: W
HStem: 0 21<187 187 187 359> 1436 20<187 359 359 359>
VStem: 186 172
AnchorPoint: "top" 289 1456 basechar 0
AnchorPoint: "bottom" 286 1 basechar 0
LayerCount: 2
Fore
SplineSet
187 0 m 1
 187 1456 l 1
 359 1456 l 1
 359 0 l 1
 187 0 l 1
EndSplineSet
EndChar

StartChar: J
Encoding: 74 74 9
Width: 1021
VWidth: 0
GlyphClass: 2
Flags: W
HStem: -207 129 1318 138<164 571 571 571 736 1007 164 1007>
VStem: 571 165<251 284 284 1318>
AnchorPoint: "top" 550 1456 basechar 0
LayerCount: 2
Fore
SplineSet
-3 -44 m 1
 82 -150 208 -207 331 -207 c 0
 582 -207 736 -60 736 251 c 2
 736 1318 l 1
 1007 1318 l 1
 1007 1456 l 1
 164 1456 l 1
 164 1318 l 1
 571 1318 l 1
 571 284 l 2
 571 26 492 -60 331 -60 c 0
 246 -60 157 -20 97 61 c 1
 -3 -44 l 1
EndSplineSet
EndChar

StartChar: K
Encoding: 75 75 10
Width: 1226
VWidth: 0
GlyphClass: 2
Flags: W
HStem: 0 21<182 182 182 354 1005 1005 1005 1223> 1436 20<182 354 354 354 972 1183 1183 1183>
VStem: 174 172
AnchorPoint: "top" 667 1456 basechar 0
AnchorPoint: "bottom" 726 0 basechar 0
LayerCount: 2
Fore
SplineSet
182 0 m 1
 182 1456 l 1
 354 1456 l 1
 354 796 l 1
 972 1456 l 1
 1183 1456 l 1
 532 764 l 1
 1223 0 l 1
 1005 0 l 1
 354 725 l 1
 354 0 l 1
 182 0 l 1
EndSplineSet
EndChar

StartChar: L
Encoding: 76 76 11
Width: 1058
VWidth: 0
GlyphClass: 2
Flags: W
HStem: 0 138<354 1035 354 1035> 1436 20<182 354 354 354>
VStem: 174 172
AnchorPoint: "top" 580 1456 basechar 0
AnchorPoint: "bottom" 696 0 basechar 0
LayerCount: 2
Fore
SplineSet
182 0 m 1
 182 1456 l 1
 354 1456 l 1
 354 138 l 1
 1035 138 l 1
 1035 0 l 1
 182 0 l 1
EndSplineSet
EndChar

StartChar: M
Encoding: 77 77 12
Width: 1910
VWidth: 0
GlyphClass: 2
Flags: W
HStem: 0 21<182 182 182 352 1560 1560 1560 1728> 1436 20<182 408 408 408 1516 1728 1728 1728>
VStem: 174 170 1552 168
AnchorPoint: "top" 970 1456 basechar 0
AnchorPoint: "bottom" 976 0 basechar 0
LayerCount: 2
Fore
SplineSet
182 0 m 1
 182 1456 l 1
 408 1456 l 1
 873 579 l 1
 956 420 l 1
 1037 582 l 1
 1516 1456 l 1
 1728 1456 l 1
 1728 0 l 1
 1560 0 l 1
 1560 1251 l 1
 1485 1096 l 1
 1014 220 l 1
 893 220 l 1
 419 1108 l 1
 352 1268 l 1
 352 0 l 1
 182 0 l 1
EndSplineSet
EndChar

StartChar: N
Encoding: 78 78 13
Width: 1551
VWidth: 0
GlyphClass: 2
Flags: W
HStem: 0 21<182 182 182 354 1162 1162 1162 1369> 1436 20<182 387 387 387 1198 1369 1369 1369>
VStem: 174 172 1190 171
AnchorPoint: "top" 809 1456 basechar 0
AnchorPoint: "bottom" 804 0 basechar 0
LayerCount: 2
Fore
SplineSet
182 0 m 1
 182 1456 l 1
 387 1456 l 1
 1123 342 l 1
 1198 215 l 1
 1198 1456 l 1
 1369 1456 l 1
 1369 0 l 1
 1162 0 l 1
 423 1113 l 1
 354 1237 l 1
 354 0 l 1
 182 0 l 1
EndSplineSet
EndChar

StartChar: O
Encoding: 79 79 14
Width: 1618
VWidth: 0
GlyphClass: 2
Flags: W
HStem: -25 152<675.5 942.5 675.5 1036.5> 1331 152<675.5 942.5>
VStem: 112 184<532 925> 1322 184<532 925 532 928.5>
AnchorPoint: "top" 790 1456 basechar 0
AnchorPoint: "bottom" 826 0 basechar 0
LayerCount: 2
Fore
SplineSet
809 127 m 0
 1076 127 1322 330 1322 729 c 0
 1322 1128 1076 1331 809 1331 c 0
 542 1331 296 1128 296 729 c 0
 296 330 542 127 809 127 c 0
809 -25 m 0
 354 -25 112 336 112 728 c 0
 112 1122 354 1483 809 1483 c 0
 1264 1483 1506 1122 1506 728 c 0
 1506 336 1264 -25 809 -25 c 0
EndSplineSet
EndChar

StartChar: P
Encoding: 80 80 15
Width: 1221
VWidth: 0
GlyphClass: 2
Flags: W
HStem: 0 21<182 182 182 354> 587 149<354 586 354 605> 1318 138<354 562 562 585 354 354>
VStem: 174 172 961 184
AnchorPoint: "top" 700 1456 basechar 0
AnchorPoint: "bottom" 676 0 basechar 0
LayerCount: 2
Fore
SplineSet
182 0 m 1
 182 1456 l 1
 562 1456 l 2
 977 1456 1153 1316 1153 1020 c 0
 1153 734 956 587 586 587 c 2
 354 587 l 1
 354 0 l 1
 182 0 l 1
354 736 m 1
 605 736 l 2
 846 736 969 832 969 1018 c 0
 969 1222 864 1318 585 1318 c 2
 354 1318 l 1
 354 736 l 1
EndSplineSet
EndChar

StartChar: Q
Encoding: 81 81 16
Width: 1618
VWidth: 0
GlyphClass: 2
Flags: W
HStem: -25 152 1331 152
VStem: 112 184 1322 184
LayerCount: 2
Fore
SplineSet
1217 -422 m 1
 927 -13 l 1
 1085 20 l 1
 1335 -338 l 1
 1217 -422 l 1
EndSplineSet
Refer: 14 79 N 1 0 0 1 0 0 2
EndChar

StartChar: R
Encoding: 82 82 17
Width: 1299
VWidth: 0
GlyphClass: 2
Flags: W
HStem: 0 21<182 182 182 354 1047 1047 1047 1235> 652 147<354 609 609 697 354 609> 1318 138<354 531 531 620 354 354>
VStem: 174 172 960 182
AnchorPoint: "top" 700 1456 basechar 0
AnchorPoint: "bottom" 676 0 basechar 0
LayerCount: 2
Fore
SplineSet
182 0 m 1
 182 1456 l 1
 531 1456 l 2
 853 1456 1150 1410 1150 1074 c 0
 1150 867 1030 719 759 665 c 1
 772 743 l 1
 1235 0 l 1
 1047 0 l 1
 601 752 l 1
 697 652 l 1
 354 652 l 1
 354 0 l 1
 182 0 l 1
354 799 m 1
 609 799 l 2
 798 799 968 859 968 1058 c 0
 968 1269 815 1318 620 1318 c 2
 354 1318 l 1
 354 799 l 1
EndSplineSet
EndChar

StartChar: S
Encoding: 83 83 18
Width: 1219
VWidth: 0
GlyphClass: 2
Flags: W
HStem: -22 146<543.5 717.5 543.5 775.5> 1334 149<544.5 706>
VStem: 136 184 921 179<308.5 450.5>
AnchorPoint: "top" 604 1456 basechar 0
AnchorPoint: "bottom" 587 -1 basechar 0
LayerCount: 2
Fore
SplineSet
628 -22 m 0
 427 -22 236 61 140 130 c 1
 194 280 l 1
 293 203 467 124 620 124 c 0
 815 124 921 227 921 390 c 0
 921 511 867 587 550 681 c 0
 252 770 134 884 136 1105 c 0
 138 1346 348 1483 619 1483 c 0
 802 1483 943 1425 1055 1348 c 1
 986 1217 l 1
 899 1276 772 1334 640 1334 c 0
 449 1334 323 1258 320 1114 c 0
 316 968 380 905 656 821 c 1
 1010 715 1100 589 1100 387 c 0
 1100 142 923 -22 628 -22 c 0
EndSplineSet
EndChar

StartChar: T
Encoding: 84 84 19
Width: 1143
VWidth: 0
GlyphClass: 2
Flags: W
HStem: 0 21<484 484 484 656> 1318 138<24 484 24 1119 656 656 656 1119>
VStem: 484 172<0 1318 0 1318>
AnchorPoint: "top" 580 1456 basechar 0
AnchorPoint: "bottom" 696 0 basechar 0
LayerCount: 2
Fore
SplineSet
484 0 m 1
 484 1318 l 1
 24 1318 l 1
 24 1456 l 1
 1119 1456 l 1
 1119 1318 l 1
 656 1318 l 1
 656 0 l 1
 484 0 l 1
EndSplineSet
EndChar

StartChar: U
Encoding: 85 85 20
Width: 1440
VWidth: 0
GlyphClass: 2
Flags: W
HStem: -22 145<600.5 852 600.5 906> 1436 20<164 336 336 336 1106 1277 1277 1277>
VStem: 164 172<541 546 546 1456> 1106 171<551 1456 551 1456 551 1456>
AnchorPoint: "top" 656 1456 basechar 0
AnchorPoint: "bottom" 826 0 basechar 0
AnchorPoint: "ogonek" 850 0 basechar 0
LayerCount: 2
Fore
SplineSet
732 -22 m 0
 363 -22 164 157 164 541 c 2
 164 1456 l 1
 336 1456 l 1
 336 546 l 2
 336 260 470 123 731 123 c 0
 973 123 1106 279 1106 539 c 2
 1106 1456 l 1
 1277 1456 l 1
 1277 551 l 1
 1275 191 1080 -22 732 -22 c 0
EndSplineSet
EndChar

StartChar: V
Encoding: 86 86 21
Width: 1303
VWidth: 0
GlyphClass: 2
Flags: W
HStem: 1 21<568 568 568 754> 1436 20<13 201 201 201 1108 1291 1291 1291>
LayerCount: 2
Fore
SplineSet
568 1 m 1
 13 1456 l 1
 201 1456 l 1
 613 325 l 1
 659 184 l 1
 707 324 l 1
 1108 1456 l 1
 1291 1456 l 1
 754 1 l 1
 568 1 l 1
EndSplineSet
EndChar

StartChar: W
Encoding: 87 87 22
Width: 2063
VWidth: 0
GlyphClass: 2
Flags: W
HStem: 1 21<441 441 441 654> 1436 20<18 204 204 204 952 1125 1125 1125 1865 2045 2045 2045>
AnchorPoint: "top" 1023 1456 basechar 0
AnchorPoint: "bottom" 1017 0 basechar 0
LayerCount: 2
Fore
SplineSet
441 1 m 1
 18 1456 l 1
 204 1456 l 1
 514 349 l 1
 552 189 l 1
 602 349 l 1
 952 1456 l 1
 1125 1456 l 1
 1472 345 l 1
 1518 190 l 1
 1560 349 l 1
 1865 1456 l 1
 2045 1456 l 1
 1622 0 l 1
 1410 0 l 1
 1033 1247 l 1
 654 1 l 1
 441 1 l 1
EndSplineSet
EndChar

StartChar: X
Encoding: 88 88 23
Width: 1269
VWidth: 0
GlyphClass: 2
Flags: W
HStem: 0 21<11 215 11 11 1049 1250 1049 1049> 1436 20<50 256 256 256 1044 1240 1240 1240>
LayerCount: 2
Fore
SplineSet
1049 0 m 1
 631 623 l 1
 215 0 l 1
 11 0 l 1
 535 741 l 1
 50 1456 l 1
 256 1456 l 1
 644 854 l 1
 1044 1456 l 1
 1240 1456 l 1
 742 742 l 1
 1250 0 l 1
 1049 0 l 1
EndSplineSet
EndChar

StartChar: Y
Encoding: 89 89 24
Width: 1225
VWidth: 0
GlyphClass: 2
Flags: W
HStem: 0 21<526 526 526 698> 1436 20<4 195 195 195 1031 1222 1222 1222>
VStem: 526 172<0 582 582 582>
AnchorPoint: "top" 620 1456 basechar 0
AnchorPoint: "bottom" 625 0 basechar 0
LayerCount: 2
Fore
SplineSet
526 0 m 1
 526 582 l 1
 4 1456 l 1
 195 1456 l 1
 611 727 l 1
 1031 1456 l 1
 1222 1456 l 1
 698 585 l 1
 698 0 l 1
 526 0 l 1
EndSplineSet
EndChar

StartChar: Z
Encoding: 90 90 25
Width: 1199
VWidth: 0
GlyphClass: 2
Flags: W
HStem: 0 138<320 1123 320 1123> 1318 138<124 899 124 1131>
AnchorPoint: "top" 700 1456 basechar 0
AnchorPoint: "bottom" 676 0 basechar 0
LayerCount: 2
Fore
SplineSet
92 0 m 1
 92 92 l 1
 899 1318 l 1
 124 1318 l 1
 124 1456 l 1
 1131 1456 l 1
 1131 1368 l 1
 320 138 l 1
 1123 138 l 1
 1123 0 l 1
 92 0 l 1
EndSplineSet
EndChar

StartChar: a
Encoding: 97 97 26
Width: 1184
VWidth: 0
GlyphClass: 2
Flags: W
HStem: -22 136<448.36 575.76> -4 135<1078 1093.5> 912 136<535.58 685.03>
VStem: 100 170<348 587 348 621> 834 164
AnchorPoint: "top" 637 1026 basechar 0
AnchorPoint: "bottom" 616 0 basechar 0
AnchorPoint: "ogonek" 994 0 basechar 0
LayerCount: 2
Fore
SplineSet
501.28 -22 m 0
 650.24 -22 791.36 53 856.5 166 c 1
 879.5 64 953.5 -4 1093.5 -4 c 1
 1122.5 131 l 1
 1033.5 131 997.5 182 997.5 278 c 2
 997.5 962 l 1
 917.5 1014 778.62 1048 652.2 1048 c 0
 326.84 1048 100 804 100 438 c 0
 100 162 266 -22 501.28 -22 c 0
524.8 114 m 0
 371.92 114 270 248 270 448 c 0
 270 726 421.9 912 649.26 912 c 0
 720.8 912 794.3 898 833.5 877 c 1
 833.5 453 l 2
 833.5 260 710.02 114 524.8 114 c 0
EndSplineSet
EndChar

StartChar: ampersand
Encoding: 38 38 27
Width: 1606
VWidth: 0
GlyphClass: 2
Flags: W
HStem: -27 143<617.5 734 617.5 758> -12 21<1446 1446> 1340 133<601 706>
VStem: 115 180<368 427.5 332.5 462.5> 299 166<1164.5 1233 1132.5 1281.5> 842 164<1164 1212.5 1142 1232.5> 1256 167<863 884>
LayerCount: 2
Fore
SplineSet
646 -27 m 0
 870 -27 1017 70 1131 186 c 1
 1217 100 1298 10 1446 -12 c 1
 1578 86 l 1
 1536 95 1499 104 1468 114 c 0
 1359 150 1294 208 1221 284 c 1
 1331 427 1414 625 1423 863 c 1
 1256 884 l 1
 1256 842 1252 800 1245 756 c 0
 1223 618 1174 493 1110 398 c 1
 712 822 l 1
 787 864 861 915 916 977 c 0
 962 1029 1006 1096 1006 1188 c 0
 1006 1237 997 1278 976 1314 c 0
 917 1414 799 1473 646 1473 c 0
 455 1473 299 1381 299 1182 c 0
 299 1147 303 1115 314 1086 c 0
 349 988 420 921 486 852 c 1
 396 802 304 744 233 672 c 0
 169 607 115 523 115 402 c 0
 115 334 128 273 156 220 c 0
 239 62 416 -27 646 -27 c 0
643 116 m 0
 592 116 545 123 503 138 c 0
 394 176 295 259 295 406 c 0
 295 449 303 488 319 522 c 0
 371 632 477 694 582 750 c 1
 802 523 l 2
 868 454 940 375 1004 311 c 0
 1017 298 1025 291 1027 291 c 1
 934 197 825 116 643 116 c 0
612 918 m 1
 590 939 570 959 552 979 c 0
 508 1028 465 1087 465 1178 c 0
 465 1288 548 1340 654 1340 c 0
 758 1340 842 1287 842 1178 c 0
 842 1150 835 1124 822 1099 c 0
 779 1017 694 963 612 918 c 1
EndSplineSet
EndChar

StartChar: asciicircum
Encoding: 94 94 28
Width: 1433
VWidth: 0
GlyphClass: 2
Flags: W
LayerCount: 2
Fore
SplineSet
184 550 m 1
 656 1432 l 1
 753 1432 l 1
 1232 550 l 1
 1077 550 l 1
 703 1260 l 1
 340 550 l 1
 184 550 l 1
EndSplineSet
EndChar

StartChar: asciitilde
Encoding: 126 126 29
Width: 1424
VWidth: 0
GlyphClass: 2
Flags: W
HStem: 410 135<923.5 949> 571 134<464 496>
VStem: 189 115<385 440> 1098 125<684 723>
LayerCount: 2
Fore
SplineSet
304 385 m 1
 324 475 380 571 486 571 c 0
 506 571 529 567 554 559 c 0
 637 532 714 487 790 452 c 0
 830 433 880 410 930 410 c 0
 968 410 1003 416 1035 430 c 0
 1134 473 1195 566 1223 684 c 1
 1098 723 l 1
 1080 641 1027 545 931 545 c 0
 916 545 897 549 876 557 c 0
 798 587 722 632 644 664 c 0
 597 683 543 705 484 705 c 0
 444 705 407 698 374 683 c 0
 280 641 213 553 189 440 c 1
 304 385 l 1
EndSplineSet
EndChar

StartChar: asterisk
Encoding: 42 42 30
Width: 1240
VWidth: 0
GlyphClass: 2
Flags: W
HStem: 1436 20<535 672 672 672>
VStem: 535 137<1158 1456>
LayerCount: 2
Fore
SplineSet
780 742 m 1
 626 1008 l 1
 478 750 l 1
 354 825 l 1
 544 1063 l 1
 272 1141 l 1
 293 1276 l 1
 575 1153 l 1
 563 1253 547 1356 535 1456 c 1
 672 1456 l 1
 672 1158 l 1
 904 1279 l 1
 968 1154 l 1
 706 1066 l 1
 906 815 l 1
 780 742 l 1
EndSplineSet
EndChar

StartChar: at
Encoding: 64 64 31
Width: 1849
VWidth: 0
GlyphClass: 2
Flags: W
HStem: -109 121<761 1058.5 761 1075> 225 125<1248 1362.5 1248 1382.5> 257 128<762.5 857.5> 1007 131<869.5 1010 838 1016.5> 1357 119<760.5 1119.5>
VStem: 133 151<479 868.5 479 911> 492 157<529 678.5 523.5 743> 1116 82 1563 153<696.5 968.5>
LayerCount: 2
Fore
SplineSet
949 -109 m 0
 1201 -109 1401 -17 1524 122 c 1
 1447 192 l 1
 1328 86 1163 12 954 12 c 0
 568 12 284 281 284 677 c 0
 284 1060 573 1357 948 1357 c 0
 1291 1357 1563 1141 1563 796 c 0
 1563 597 1448 350 1277 350 c 0
 1219 350 1198 380 1198 436 c 0
 1198 506 1251 711 1337 1107 c 1
 1197 1107 l 1
 1179 1022 l 1
 1142 1091 1061 1138 959 1138 c 0
 717 1138 492 876 492 610 c 0
 492 448 583 257 802 257 c 0
 913 257 993 313 1049 384 c 1
 1067 276 1139 225 1257 225 c 0
 1508 225 1716 507 1716 791 c 0
 1716 1205 1367 1476 953 1476 c 0
 503 1476 133 1143 133 679 c 0
 133 216 491 -109 949 -109 c 0
818 385 m 0
 707 385 649 465 649 582 c 0
 649 775 778 1007 961 1007 c 0
 1072 1007 1116 936 1116 821 c 0
 1116 622 998 385 818 385 c 0
EndSplineSet
EndChar

StartChar: b
Encoding: 98 98 32
Width: 1162
VWidth: 0
GlyphClass: 2
Flags: W
HStem: -22 136<474 660 474 706> 912 136<598.5 709> 1505 20<156 321 156 156>
VStem: 152 165 888 170
AnchorPoint: "top" 686 1249 basechar 0
AnchorPoint: "bottom" 789 0 basechar 0
LayerCount: 2
Fore
SplineSet
554 -22 m 0
 858 -22 1062 215 1062 545 c 0
 1062 865 884 1048 661 1048 c 0
 536 1048 433 1019 321 884 c 1
 321 1525 l 1
 156 1525 l 1
 156 71 l 1
 156 71 321 -22 554 -22 c 0
548 114 m 0
 400 114 321 151 321 151 c 1
 321 711 l 1
 426 869 525 912 638 912 c 0
 780 912 892 793 892 550 c 0
 892 318 772 114 548 114 c 0
EndSplineSet
EndChar

StartChar: backslash
Encoding: 92 92 33
Width: 693
VWidth: 0
GlyphClass: 2
Flags: W
HStem: 1431 20<-47 120 120 120>
LayerCount: 2
Fore
SplineSet
582 -215 m 1
 -47 1451 l 1
 120 1451 l 1
 745 -215 l 1
 582 -215 l 1
EndSplineSet
EndChar

StartChar: bar
Encoding: 124 124 34
Width: 954
VWidth: 0
GlyphClass: 2
Flags: W
HStem: -482 21
VStem: 389 176
LayerCount: 2
Fore
SplineSet
389.489 -482.43 m 1
 389.489 1535.94 l 1
 565.314 1535.94 l 1
 565.314 -482.43 l 1
 389.489 -482.43 l 1
EndSplineSet
EndChar

StartChar: braceleft
Encoding: 123 123 35
Width: 734
VWidth: 0
GlyphClass: 2
Flags: W
HStem: -230 142 555 135 1332 143
VStem: 261 186
LayerCount: 2
Fore
SplineSet
643.276 -229.769 m 1
 419.276 -223.947 261.276 -132.801 261.276 63.9056 c 2
 261.276 313.629 l 2
 261.276 444.371 209.154 542.511 69.2729 554.804 c 1
 69.2729 689.588 l 1
 183.759 697.567 260.483 777.647 261.133 906.941 c 2
 261.133 1150.67 l 2
 261.133 1345.16 381.887 1474.68 644.119 1474.68 c 1
 644.119 1332.04 l 1
 530.706 1329.88 447.629 1276.07 447.629 1143.17 c 2
 447.629 870.472 l 2
 447.629 730.612 354.042 652.368 248.825 620.018 c 1
 366.178 576.825 447.629 461.514 447.629 354.867 c 2
 447.629 122.748 l 2
 447.629 -46.7623 531.902 -87.1216 643.276 -87.4716 c 1
 643.276 -229.769 l 1
EndSplineSet
EndChar

StartChar: braceright
Encoding: 125 125 36
Width: 754
VWidth: 0
GlyphClass: 2
Flags: W
HStem: -230 143 555 135 1332 142
VStem: 303 187
LayerCount: 2
Fore
SplineSet
106.685 -229.769 m 1
 368.917 -229.769 489.878 -100.457 489.878 94.0357 c 2
 489.878 337.766 l 2
 490.528 467.06 567.045 547.14 681.531 555.119 c 1
 681.531 689.902 l 1
 541.65 702.196 489.528 800.335 489.528 931.077 c 2
 489.528 1180.8 l 2
 489.528 1377.51 331.528 1468.86 107.528 1474.68 c 1
 107.528 1332.18 l 1
 218.902 1331.83 303.175 1291.47 303.175 1121.96 c 2
 303.175 889.84 l 2
 303.175 783.193 384.626 667.881 501.979 624.689 c 1
 396.762 592.339 303.175 514.095 303.175 374.235 c 2
 303.175 101.532 l 2
 303.175 -31.3673 220.098 -84.9643 106.685 -87.1216 c 1
 106.685 -229.769 l 1
EndSplineSet
EndChar

StartChar: bracketleft
Encoding: 91 91 37
Width: 628
VWidth: 0
GlyphClass: 2
Flags: W
HStem: -259 122<354 548 354 548> 1329 122<354 547 354 354>
VStem: 191 357<-259 -137 -259 1451> 191 163<-137 1329 -137 1451 -137 1451>
LayerCount: 2
Fore
SplineSet
191 -259 m 1
 191 1451 l 1
 547 1451 l 1
 547 1329 l 1
 354 1329 l 1
 354 -137 l 1
 548 -137 l 1
 548 -259 l 1
 191 -259 l 1
EndSplineSet
EndChar

StartChar: bracketright
Encoding: 93 93 38
Width: 628
VWidth: 0
GlyphClass: 2
Flags: W
HStem: -259 122<87 278 87 278 87 442> 1329 122<88 278 88 88>
VStem: 87 355<-259 -137 -137 -137> 278 164<-137 1329 1329 1329>
LayerCount: 2
Fore
SplineSet
87 -259 m 1
 87 -137 l 1
 278 -137 l 1
 278 1329 l 1
 88 1329 l 1
 78 1451 l 1
 442 1451 l 1
 442 -259 l 1
 87 -259 l 1
EndSplineSet
EndChar

StartChar: brokenbar
Encoding: 166 166 39
Width: 500
VWidth: 0
GlyphClass: 2
Flags: W
HStem: -491 21<168 168 168 325>
VStem: 168 157<-491 393 -491 393 677 1545>
LayerCount: 2
Fore
SplineSet
168 -491 m 1
 168 393 l 1
 325 393 l 1
 325 -491 l 1
 168 -491 l 1
168 677 m 1
 168 1545 l 1
 325 1545 l 1
 325 677 l 1
 168 677 l 1
EndSplineSet
EndChar

StartChar: c
Encoding: 99 99 40
Width: 1027
VWidth: 0
GlyphClass: 2
Flags: W
HStem: -22 136<519.887 660.587> 912 136<529.769 661.065>
VStem: 100 170<379.5 642 379.5 679>
AnchorPoint: "top" 597 1026 basechar 0
AnchorPoint: "bottom" 599 0 basechar 0
LayerCount: 2
Fore
SplineSet
598.476 -22 m 0
 722.699 -22 849.699 21 952.699 102 c 1
 896.699 227 l 1
 820.699 158 711.699 114 611.653 114 c 0
 428.12 114 270 251 270 508 c 0
 270 776 442.238 912 617.3 912 c 0
 704.831 912 799.699 874 869.699 806 c 1
 931.699 924 l 1
 841.699 1011 718.699 1048 604.123 1048 c 0
 342.472 1048 100 849 100 509 c 0
 100 177 333.06 -22 598.476 -22 c 0
EndSplineSet
EndChar

StartChar: cent
Encoding: 162 162 41
Width: 1170
VWidth: 0
GlyphClass: 2
Flags: W
HStem: -20 142<542 542 542 650> 904 145<542 542>
VStem: 94 173<396.5 611 396.5 654> 542 108<-235 -20 -235 -20 122 904 904 904 1049 1281>
LayerCount: 2
Fore
SplineSet
542 -235 m 1
 542 -20 l 1
 287 6 94 213 94 503 c 0
 94 805 266 1024 542 1049 c 1
 542 1281 l 1
 650 1281 l 1
 650 1049 l 1
 779 1039 881 991 941 912 c 1
 864 801 l 1
 815 862 742 898 650 907 c 1
 650 120 l 1
 732 129 825 159 921 225 c 1
 957 87 l 1
 851 23 745 -10 650 -20 c 1
 650 -235 l 1
 542 -235 l 1
542 122 m 1
 542 904 l 1
 362 874 267 714 267 508 c 0
 267 285 379 148 542 122 c 1
EndSplineSet
EndChar

StartChar: colon
Encoding: 58 58 42
Width: 540
VWidth: 0
GlyphClass: 2
Flags: W
HStem: -11 210<159 376 159 376> 841 210<159 376 159 376>
VStem: 159 217<-11 199 -11 199 841 1051>
LayerCount: 2
Fore
SplineSet
159 -11 m 1
 159 199 l 1
 376 199 l 1
 376 -11 l 1
 159 -11 l 1
159 841 m 1
 159 1051 l 1
 376 1051 l 1
 376 841 l 1
 159 841 l 1
EndSplineSet
EndChar

StartChar: comma
Encoding: 44 44 43
Width: 540
VWidth: 0
GlyphClass: 2
Flags: W
HStem: -310 517<78 372 185 209>
VStem: 78 294
LayerCount: 2
Fore
SplineSet
78 -310 m 1
 185 207 l 1
 372 207 l 1
 209 -310 l 1
 78 -310 l 1
EndSplineSet
EndChar

StartChar: copyright
Encoding: 169 169 44
Width: 1780
VWidth: 0
GlyphClass: 2
Flags: W
HStem: -32 117<792 991.5 792 1012.5> 249 131<919.5 975.5> 1080 128<892.5 973.5> 1366 117<789 987.5>
VStem: 103 127<691.5 826.5 627 846.5> 451 153<695.5 757 649.5 844> 1542 127<624.5 759.5 605 824>
LayerCount: 2
Fore
SplineSet
918 249 m 0
 1033 249 1131 279 1214 339 c 1
 1177 460 l 1
 1119 411 1045 380 948 380 c 0
 891 380 842 390 799 408 c 0
 683 458 604 566 604 733 c 0
 604 781 612 826 626 868 c 0
 668 989 766 1080 922 1080 c 0
 1025 1080 1111 1048 1181 985 c 1
 1211 1105 l 1
 1133 1174 1038 1208 928 1208 c 0
 857 1208 793 1196 735 1172 c 0
 573 1106 451 959 451 729 c 0
 451 662 463 600 487 542 c 0
 554 378 700 249 918 249 c 0
893 -32 m 0
 1132 -32 1309 67 1436 192 c 0
 1560 313 1669 485 1669 725 c 0
 1669 794 1659 860 1640 924 c 0
 1599 1059 1525 1170 1436 1258 c 0
 1308 1383 1129 1483 887 1483 c 0
 648 1483 465 1385 337 1260 c 0
 213 1139 103 967 103 726 c 0
 103 657 113 590 132 526 c 0
 173 391 246 280 336 192 c 0
 464 67 651 -32 893 -32 c 0
892 85 m 0
 692 85 529 164 418 270 c 1
 313 373 230 527 230 727 c 0
 230 926 313 1080 418 1182 c 1
 528 1286 690 1366 888 1366 c 0
 1087 1366 1247 1285 1354 1180 c 0
 1459 1077 1542 924 1542 724 c 0
 1542 525 1459 372 1355 270 c 0
 1248 165 1091 85 892 85 c 0
EndSplineSet
EndChar

StartChar: currency
Encoding: 164 164 45
Width: 1213
VWidth: 0
GlyphClass: 2
Flags: W
HStem: 274 77<509.5 602> 965 83
VStem: 175 88<610 707.5> 841 92<651 651>
LayerCount: 2
Fore
SplineSet
970 210 m 1
 804 371 l 1
 738 310 650 274 554 274 c 0
 465 274 382 308 317 363 c 1
 157 195 l 1
 121 232 l 1
 280 398 l 1
 216 467 175 559 175 661 c 0
 175 754 211 840 269 908 c 1
 106 1065 l 1
 145 1104 l 1
 305 947 l 1
 374 1011 466 1050 563 1048 c 0
 651 1046 733 1012 796 956 c 1
 952 1120 l 1
 992 1081 l 1
 834 917 l 1
 898 846 935 753 933 651 c 0
 931 557 896 473 839 408 c 1
 1007 246 l 1
 970 210 l 1
552 351 m 0
 714 351 837 482 841 651 c 0
 845 820 721 961 560 965 c 0
 398 969 263 827 263 658 c 0
 263 489 390 351 552 351 c 0
EndSplineSet
EndChar

StartChar: d
Encoding: 100 100 46
Width: 1190
VWidth: 0
GlyphClass: 2
Flags: W
HStem: -22 136<458.5 585.5> 912 136<528.5 675.5 505 678> 1506 20<839 1004 839 839>
VStem: 100 171<344 586.5 344 657.5> 839 165<1014 1526 1014 1014>
AnchorPoint: "top" 790 1456 basechar 0
AnchorPoint: "bottom" 826 0 basechar 0
LayerCount: 2
Fore
SplineSet
271 459 m 0
 271 714 408 912 649 912 c 0
 707 912 770 901 840 876 c 1
 840 494 l 2
 840 255 719 114 530 114 c 0
 387 114 271 229 271 459 c 0
852 177 m 1
 856 111 892 32 930 -13 c 1
 1092 10 l 1
 1047 76 1004 162 1004 390 c 2
 1004 1526 l 1
 839 1526 l 1
 839 1014 l 1
 774 1037 708 1048 643 1048 c 0
 367 1048 100 855 100 460 c 0
 100 145 278 -22 512 -22 c 0
 659 -22 793 52 852 177 c 1
EndSplineSet
EndChar

StartChar: dieresis
Encoding: 168 168 47
Width: 743
VWidth: 0
GlyphClass: 2
Flags: W
HStem: 1183 163<121 285 121 285 453 617>
VStem: 121 164<1183 1346 1183 1346> 453 164<1183 1346 1183 1346>
AnchorPoint: "top" 368 1026 mark 0
LayerCount: 2
Fore
SplineSet
121 1183 m 1
 121 1346 l 1
 285 1346 l 1
 285 1183 l 1
 121 1183 l 1
453 1183 m 1
 453 1346 l 1
 617 1346 l 1
 617 1183 l 1
 453 1183 l 1
EndSplineSet
EndChar

StartChar: dollar
Encoding: 36 36 48
Width: 1228
VWidth: 0
GlyphClass: 2
Flags: W
HStem: -16 143<541 542> 1299 140<662 663>
VStem: 153 189<1019 1105.5> 544 119<605 648> 896 179<341.5 419 269 432.5>
LayerCount: 2
Fore
SplineSet
546 -172 m 1
 664 -172 l 1
 661 -11 l 1
 716 -6 769 5 818 24 c 0
 953 74 1075 177 1075 361 c 0
 1075 477 1033 547 967 604 c 0
 884 677 779 722 661 770 c 1
 663 1299 l 1
 781 1295 874 1261 943 1198 c 1
 992 1326 l 1
 912 1394 797 1436 662 1439 c 1
 659 1575 l 1
 540 1575 l 1
 544 1437 l 1
 436 1428 341 1377 275 1315 c 0
 211 1254 153 1164 153 1047 c 0
 153 991 164 944 185 904 c 0
 256 772 406 712 544 648 c 1
 541 127 l 1
 435 132 341 173 267 223 c 1
 218 89 l 1
 307 25 409 -13 542 -16 c 1
 546 -172 l 1
659 131 m 1
 663 605 l 1
 766 559 896 507 896 358 c 0
 896 325 889 296 877 270 c 0
 839 192 759 145 659 131 c 1
542 818 m 1
 439 858 342 913 342 1059 c 0
 342 1193 429 1278 544 1293 c 1
 542 818 l 1
EndSplineSet
EndChar

StartChar: e
Encoding: 101 101 49
Width: 1068
VWidth: 0
GlyphClass: 2
Flags: W
HStem: -22 136<551 669> 912 136<523.5 659.5>
VStem: 100 180 790 163
AnchorPoint: "top" 608 1026 basechar 0
AnchorPoint: "bottom" 656 0 basechar 0
AnchorPoint: "ogonek" 881 66 basechar 0
LayerCount: 2
Fore
SplineSet
606 -22 m 0
 732 -22 868 22 988 119 c 1
 916 233 l 1
 831 152 726 114 626 114 c 0
 476 114 336 205 292 371 c 1
 661 425 945 506 945 751 c 0
 945 918 808 1048 601 1048 c 0
 290 1048 100 791 100 512 c 0
 100 175 333 -22 606 -22 c 0
281 490 m 1
 279 506 278 525 278 539 c 0
 278 789 445 912 602 912 c 0
 717 912 782 848 782 754 c 0
 782 593 575 534 281 490 c 1
EndSplineSet
EndChar

StartChar: eight
Encoding: 56 56 50
Width: 1222
VWidth: 0
GlyphClass: 2
Flags: W
HStem: -22 142<524.5 702 524.5 743.5> 1347 136<530.5 686>
VStem: 130 177<300.5 476.5 300.5 483.5> 165 171<1031.5 1187.5 1031.5 1251> 887 171<1031.5 1194> 916 177<304.5 483.5>
LayerCount: 2
Fore
SplineSet
611 -22 m 0
 335 -22 130 133 130 377 c 0
 130 590 267 714 440 767 c 1
 288 816 165 928 165 1121 c 0
 165 1381 385 1483 611 1483 c 0
 870 1483 1058 1345 1058 1121 c 0
 1058 928 934 816 782 767 c 1
 955 714 1093 590 1093 377 c 0
 1093 101 876 -22 611 -22 c 0
611 120 m 0
 793 120 916 219 916 390 c 0
 916 577 762 661 611 693 c 1
 448 659 307 563 307 390 c 0
 307 211 438 120 611 120 c 0
611 840 m 1
 762 869 887 947 887 1116 c 0
 887 1272 761 1347 611 1347 c 0
 450 1347 336 1259 336 1116 c 0
 336 947 460 869 611 840 c 1
EndSplineSet
EndChar

StartChar: equal
Encoding: 61 61 51
Width: 1232
VWidth: 0
GlyphClass: 2
Flags: W
HStem: 403 137<180 1053 180 1053> 809 138<179 1052 179 1052>
LayerCount: 2
Fore
SplineSet
180 403 m 1
 1053 403 l 1
 1053 540 l 1
 180 540 l 1
 180 403 l 1
179 809 m 1
 1052 809 l 1
 1052 947 l 1
 179 947 l 1
 179 809 l 1
EndSplineSet
EndChar

StartChar: exclam
Encoding: 33 33 52
Width: 737
VWidth: 0
GlyphClass: 2
Flags: W
HStem: -6 223<340.5 396.5> 1436 20<270 457 270 270>
VStem: 255 227<76 135 70 141> 270 187<1456 1456> 321 86<373 373>
LayerCount: 2
Fore
SplineSet
368 -6 m 0
 425 -6 482 35 482 105 c 0
 482 165 442 217 369 217 c 0
 312 217 255 176 255 106 c 0
 255 46 295 -6 368 -6 c 0
321 373 m 1
 407 373 l 1
 457 1456 l 1
 270 1456 l 1
 321 373 l 1
EndSplineSet
EndChar

StartChar: exclamdown
Encoding: 161 161 53
Width: 737
VWidth: 0
GlyphClass: 2
Flags: W
HStem: -6 21<254 441 441 441> 1233 223<324.5 380.5 315.5 389.5>
VStem: 239 227<1315 1374> 254 187<-6 -6> 305 86<1077 1077>
LayerCount: 2
Fore
SplineSet
254 -6 m 1
 441 -6 l 1
 391 1077 l 1
 305 1077 l 1
 254 -6 l 1
353 1233 m 0
 426 1233 466 1285 466 1345 c 0
 466 1415 409 1456 352 1456 c 0
 279 1456 239 1404 239 1344 c 0
 239 1274 296 1233 353 1233 c 0
EndSplineSet
EndChar

StartChar: f
Encoding: 102 102 54
Width: 692
VWidth: 0
GlyphClass: 2
Flags: W
HStem: -404 135<140 160> 919 107<51 253 51 253 412 658> 1406 120<618.5 654 654 708>
VStem: 253 159<-83 -76 -76 919 1026 1194 -83 1026>
AnchorPoint: "top" 543 1464 basechar 0
AnchorPoint: "bottom" 366 0 basechar 0
LayerCount: 2
Fore
SplineSet
160 -404 m 1
 390 -393 412 -215 412 -83 c 2
 412 919 l 1
 658 919 l 1
 658 1026 l 1
 412 1026 l 1
 412 1196 l 2
 412 1393 529 1406 708 1406 c 1
 708 1526 l 1
 654 1526 l 2
 391 1526 253 1447 253 1194 c 2
 253 1026 l 1
 51 1026 l 1
 51 919 l 1
 253 919 l 1
 253 -76 l 2
 253 -227 226 -255 140 -269 c 1
 160 -404 l 1
EndSplineSet
EndChar

StartChar: five
Encoding: 53 53 55
Width: 1230
VWidth: 0
GlyphClass: 2
Flags: W
HStem: -23 164 764 168 1292 164
VStem: 235 164 910 197
LayerCount: 2
Fore
SplineSet
609.214 -23 m 0
 448.371 -23 284.843 24.0417 165.665 146.413 c 1
 257.448 288.374 l 1
 355.605 179.196 486.584 140.647 606.371 140.647 c 0
 808.353 140.647 910.273 277.077 910.273 464.27 c 0
 910.273 629.207 818.457 763.593 642.454 763.593 c 0
 555.496 763.593 454.801 727.334 414.487 665.198 c 1
 235.448 673.275 l 1
 235.448 1456 l 1
 1019.83 1456 l 1
 1019.83 1291.7 l 1
 412.71 1291.7 l 1
 399.41 834.418 l 1
 461.074 900.296 564.389 931.575 659.06 931.575 c 0
 932.57 931.575 1107.29 731.148 1107.29 461.127 c 0
 1107.29 175.008 917.252 -23 609.214 -23 c 0
EndSplineSet
EndChar

StartChar: four
Encoding: 52 52 56
Width: 1230
VWidth: 0
GlyphClass: 2
Flags: W
HStem: 0 21<743.557 743.557 743.557 936.326> 386 150 1436 20<687.876 935.341 935.341 935.341>
VStem: 744 191
LayerCount: 2
Fore
SplineSet
743.557 0 m 1
 743.557 385.665 l 1
 104.843 385.665 l 1
 104.843 541.06 l 1
 687.876 1456 l 1
 935.341 1456 l 1
 935.341 535.735 l 1
 1152.65 535.735 l 1
 1152.65 385.665 l 1
 936.326 385.665 l 1
 936.326 0 l 1
 743.557 0 l 1
307.29 535.735 m 1
 744.4 535.735 l 1
 744.4 1247.29 l 1
 640.897 1080.67 l 1
 307.29 535.735 l 1
EndSplineSet
EndChar

StartChar: g
Encoding: 103 103 57
Width: 1155
VWidth: 0
GlyphClass: 2
Flags: W
HStem: -494 137<469.5 605.5 462.5 661.5> -22 136<451 576> 912 136<535 687.5>
VStem: 100 170<348 591 348 629> 839 164<-138 962 -23 153 374.5 476 476 877>
AnchorPoint: "top" 574 1027 basechar 0
AnchorPoint: "bottom" 582 -512 basechar 0
LayerCount: 2
Fore
SplineSet
518 -494 m 0
 805 -494 1003 -306 1003 -23 c 2
 1003 962 l 1
 923 1014 783 1048 654 1048 c 0
 322 1048 100 820 100 438 c 0
 100 162 268 -22 508 -22 c 0
 644 -22 763 28 839 153 c 1
 839 -44 l 2
 839 -232 706 -357 505 -357 c 0
 420 -357 300 -326 209 -280 c 1
 193 -433 l 1
 293 -470 421 -494 518 -494 c 0
529 114 m 0
 373 114 270 248 270 448 c 0
 270 734 419 912 651 912 c 0
 724 912 799 889 839 877 c 1
 839 476 l 2
 839 273 733 114 529 114 c 0
EndSplineSet
EndChar

StartChar: grave
Encoding: 96 96 58
Width: 593
VWidth: 0
GlyphClass: 2
Flags: W
HStem: 1172 320<1 333 1 462>
VStem: 1 461<1172 1492>
AnchorPoint: "top" 448 1022 mark 0
LayerCount: 2
Fore
SplineSet
333 1172 m 1
 1 1492 l 1
 215 1492 l 1
 462 1172 l 1
 333 1172 l 1
EndSplineSet
EndChar

StartChar: greater
Encoding: 62 62 59
Width: 1437
VWidth: 0
GlyphClass: 2
Flags: W
LayerCount: 2
Fore
SplineSet
215 58 m 1
 215 212 l 1
 983 555 l 1
 220 926 l 1
 220 1078 l 1
 1204 594 l 1
 1204 505 l 1
 215 58 l 1
EndSplineSet
EndChar

StartChar: guillemotleft
Encoding: 171 171 60
Width: 1143
VWidth: 0
GlyphClass: 2
Flags: W
LayerCount: 2
Fore
SplineSet
514 171 m 1
 246 541 l 1
 520 914 l 1
 673 914 l 1
 416 541 l 1
 665 171 l 1
 514 171 l 1
873 171 m 1
 611 541 l 1
 878 914 l 1
 1037 914 l 1
 774 541 l 1
 1030 171 l 1
 873 171 l 1
EndSplineSet
EndChar

StartChar: h
Encoding: 104 104 61
Width: 1225
VWidth: 0
GlyphClass: 2
Flags: W
HStem: -20 130<1143 1153 1153 1156 1156 1156> 0 21<152 316 316 316> 912 136<581 704> 1506 20<152 316 152 152>
VStem: 152 164<0 541 541 665.5 865 1526 0 541> 844 164
AnchorPoint: "top" 737 1260 basechar 0
AnchorPoint: "bottom" 645 0 basechar 0
LayerCount: 2
Fore
SplineSet
1156 -20 m 1
 1177 110 l 1
 1153 110 l 2
 1050 110 1018 172 1018 320 c 2
 1018 565 l 2
 1018 903 878 1048 654 1048 c 0
 508 1048 382 980 316 865 c 1
 316 1526 l 1
 152 1526 l 1
 152 0 l 1
 316 0 l 1
 316 541 l 2
 316 790 484 912 630 912 c 0
 778 912 854 808 854 562 c 2
 854 294 l 2
 854 74 935 -20 1143 -20 c 2
 1156 -20 l 1
EndSplineSet
EndChar

StartChar: hyphen
Encoding: 45 45 62
Width: 1237
VWidth: 0
GlyphClass: 2
Flags: W
HStem: 637 143<219 1018 219 1018>
LayerCount: 2
Fore
SplineSet
219 637 m 1
 219 780 l 1
 1018 780 l 1
 1018 637 l 1
 219 637 l 1
EndSplineSet
EndChar

StartChar: i
Encoding: 105 105 63
Width: 611
VWidth: 0
GlyphClass: 2
Flags: W
HStem: 1006 20<175 339 175 175> 1245 199<233 286>
VStem: 152 215<1312 1377 1311 1378> 175 164<121.5 1026 267 1026 267 1026>
AnchorPoint: "bottom" 256 1 basechar 0
LayerCount: 2
Fore
SplineSet
641 26 m 1
 618 145 l 1
 482 96 339 74 339 267 c 2
 339 1026 l 1
 175 1026 l 1
 175 262 l 2
 175 -19 409 -69 641 26 c 1
259 1245 m 0
 313 1245 367 1278 367 1344 c 0
 367 1410 314 1444 260 1444 c 0
 206 1444 152 1411 152 1345 c 0
 152 1279 205 1245 259 1245 c 0
EndSplineSet
EndChar

StartChar: j
Encoding: 106 106 64
Width: 539
VWidth: 0
GlyphClass: 2
Flags: W
HStem: -463 131<-16.5 50.5 -32 114.5> 1006 20<207 371 207 207> 1245 199<264 317>
VStem: 183 215<1312 1377 1311 1378> 207 164<-109 1026 35 1026 35 1026>
AnchorPoint: "top" 700 1456 basechar 0
AnchorPoint: "bottom" 676 0 basechar 0
LayerCount: 2
Fore
SplineSet
11 -463 m 0
 218 -463 371 -322 371 35 c 2
 371 1026 l 1
 207 1026 l 1
 207 29 l 2
 207 -247 112 -332 -11 -332 c 0
 -53 -332 -98 -322 -143 -307 c 1
 -162 -435 l 1
 -102 -453 -44 -463 11 -463 c 0
290 1245 m 0
 344 1245 398 1278 398 1344 c 0
 398 1410 345 1444 291 1444 c 0
 237 1444 183 1411 183 1345 c 0
 183 1279 236 1245 290 1245 c 0
EndSplineSet
EndChar

StartChar: k
Encoding: 107 107 65
Width: 1112
VWidth: 0
GlyphClass: 2
Flags: W
HStem: 1006 20<846 846> 1506 20<158 322 158 158>
VStem: 152 164
AnchorPoint: "top" 767 1026 basechar 0
AnchorPoint: "bottom" 616 -1 basechar 0
LayerCount: 2
Fore
SplineSet
1106 129 m 1
 979 58 898 183 817 293 c 2
 657 512 l 1
 994 976 l 1
 846 1026 l 1
 322 288 l 1
 322 1526 l 1
 158 1526 l 1
 158 60 l 2
 158 -24 248 -40 303 27 c 1
 568 390 l 1
 704 204 l 2
 821 44 925 -74 1094 -6 c 1
 1106 129 l 1
EndSplineSet
EndChar

StartChar: l
Encoding: 108 108 66
Width: 686
VWidth: 0
GlyphClass: 2
Flags: W
HStem: -18 126<458.5 521> 1506 20<168 332 168 168>
VStem: 168 164<292 300 300 1526>
AnchorPoint: "top" 266 1474 basechar 0
AnchorPoint: "bottom" 264 0 basechar 0
LayerCount: 2
Fore
SplineSet
695 152 m 1
 631 125 566 108 509 108 c 0
 408 108 332 159 332 292 c 2
 332 1526 l 1
 168 1526 l 1
 168 300 l 2
 168 83 307 -18 484 -18 c 0
 558 -18 640 0 720 35 c 1
 695 152 l 1
EndSplineSet
EndChar

StartChar: less
Encoding: 60 60 67
Width: 1437
VWidth: 0
GlyphClass: 2
Flags: W
LayerCount: 2
Fore
SplineSet
1202 48 m 1
 219 508 l 1
 219 595 l 1
 1206 1067 l 1
 1206 914 l 1
 438 552 l 1
 1202 200 l 1
 1202 48 l 1
EndSplineSet
EndChar

StartChar: logicalnot
Encoding: 172 172 68
Width: 1431
VWidth: 0
GlyphClass: 2
Flags: W
HStem: 659 139<200 1072 200 1222>
VStem: 1072 150<238 659 659 659>
LayerCount: 2
Fore
SplineSet
1072 238 m 1
 1072 659 l 1
 200 659 l 1
 200 798 l 1
 1222 798 l 1
 1222 238 l 1
 1072 238 l 1
EndSplineSet
EndChar

StartChar: m
Encoding: 109 109 69
Width: 1922
VWidth: 0
GlyphClass: 2
Flags: W
HStem: -20 131<1851 1853 1853 1853> 0 21<199 363 363 363 881 1045 1045 1045> 912 136<620 744 1309.5 1437>
VStem: 199 164<0 525 525 652.5 0 676 0 525> 880 165 1551 164<210 565 370 562>
AnchorPoint: "top" 952 1024 basechar 0
AnchorPoint: "bottom" 946 0 basechar 0
LayerCount: 2
Fore
SplineSet
1853 -20 m 1
 1874 110 l 1
 1866 110 1858 111 1851 111 c 0
 1729 119 1715 197 1715 370 c 2
 1715 565 l 2
 1715 903 1603 1048 1378 1048 c 0
 1241 1048 1085 993 995 836 c 1
 950 963 867 1048 709 1048 c 0
 531 1048 394 967 326 829 c 1
 319 902 265 981 218 1018 c 1
 76 937 l 1
 130 890 199 809 199 676 c 2
 199 0 l 1
 363 0 l 1
 363 525 l 2
 363 780 500 912 670 912 c 0
 818 912 881 808 881 562 c 2
 881 0 l 1
 1045 0 l 1
 1045 532 l 2
 1045 799 1217 912 1363 912 c 0
 1511 912 1551 808 1551 562 c 2
 1551 324 l 2
 1551 96 1612 -13 1830 -20 c 1
 1853 -20 l 1
EndSplineSet
EndChar

StartChar: n
Encoding: 110 110 70
Width: 1261
VWidth: 0
GlyphClass: 2
Flags: W
HStem: -20 130<1166 1187 1187 1192 1192 1192> 0 21<199 363 363 363> 912 136<618 731.5> 1005 20
VStem: 199 164<0 518 518 657 0 679 0 518> 890 164<225 584 357 576>
AnchorPoint: "top" 700 1456 basechar 0
AnchorPoint: "bottom" 676 0 basechar 0
LayerCount: 2
Fore
SplineSet
1213 110 m 1
 1187 110 l 2
 1082 110 1054 188 1054 357 c 2
 1054 584 l 2
 1054 904 901 1048 705 1048 c 0
 531 1048 388 960 326 829 c 1
 315 907 270 974 218 1019 c 1
 76 937 l 1
 124 897 199 813 199 679 c 2
 199 0 l 1
 363 0 l 1
 363 518 l 2
 363 796 511 912 659 912 c 0
 804 912 890 822 890 576 c 2
 890 338 l 2
 890 112 944 -20 1166 -20 c 2
 1192 -20 l 1
 1213 110 l 1
EndSplineSet
EndChar

StartChar: nine
Encoding: 57 57 71
Width: 1226
VWidth: 0
GlyphClass: 2
Flags: W
HStem: 515 136<501 657> 1334 149<525.5 741>
VStem: 124 172<907.5 1099.5 907.5 1138.5> 953 167<928 1097>
LayerCount: 2
Fore
SplineSet
527 -76 m 1
 981 598 l 1
 1072 729 1120 865 1120 991 c 0
 1120 1243 961 1483 617 1483 c 0
 338 1483 124 1282 124 995 c 0
 124 724 306 515 604 515 c 0
 710 515 782 569 790 575 c 1
 397 0 l 1
 527 -76 l 1
623 651 m 0
 379 651 296 821 296 994 c 0
 296 1205 423 1334 628 1334 c 0
 854 1334 953 1202 953 992 c 0
 953 791 842 651 623 651 c 0
EndSplineSet
EndChar

StartChar: numbersign
Encoding: 35 35 72
Width: 1221
VWidth: 0
GlyphClass: 2
Flags: W
HStem: 485 126<64 305 53 328 64 443 464 694 857 1092> 886 124<131 376 118 397 131 516 539 767 928 1155>
LayerCount: 2
Fore
SplineSet
221 60 m 1
 305 485 l 1
 53 485 l 1
 64 611 l 1
 328 611 l 1
 343 705 360 793 376 886 c 1
 118 886 l 1
 131 1010 l 1
 397 1010 l 1
 473 1420 l 1
 613 1420 l 1
 539 1010 l 1
 790 1010 l 1
 863 1420 l 1
 1006 1420 l 1
 928 1010 l 1
 1169 1010 l 1
 1155 886 l 1
 906 886 l 1
 857 611 l 1
 1106 611 l 1
 1092 485 l 1
 836 485 l 1
 756 60 l 1
 617 60 l 1
 694 485 l 1
 443 485 l 1
 364 60 l 1
 221 60 l 1
464 611 m 1
 718 611 l 1
 767 886 l 1
 516 886 l 1
 464 611 l 1
EndSplineSet
EndChar

StartChar: o
Encoding: 111 111 73
Width: 1194
VWidth: 0
GlyphClass: 2
Flags: W
HStem: -22 136<502.5 699 502.5 746> 912 136<502 698.5>
VStem: 100 170<390.5 630 390.5 672> 923 171<392 631.5>
AnchorPoint: "top" 598 1026 basechar 0
AnchorPoint: "bottom" 585 0 basechar 0
AnchorPoint: "ogonek" 675 0 basechar 0
LayerCount: 2
Fore
SplineSet
602 114 m 0
 796 114 923 273 923 511 c 0
 923 752 796 912 601 912 c 0
 403 912 270 751 270 509 c 0
 270 272 403 114 602 114 c 0
602 -22 m 0
 309 -22 100 191 100 511 c 0
 100 833 309 1048 601 1048 c 0
 889 1048 1094 834 1094 513 c 0
 1094 192 890 -22 602 -22 c 0
EndSplineSet
EndChar

StartChar: one
Encoding: 49 49 74
Width: 1248
VWidth: 0
GlyphClass: 2
Flags: W
HStem: 0 21<658 830 830 830> 1436 20<665 830 665 665>
VStem: 658 172<0 1456 0 1288>
LayerCount: 2
Fore
SplineSet
658 0 m 1
 830 0 l 1
 830 1456 l 1
 665 1456 l 1
 597 1405 475 1330 359 1277 c 1
 400 1146 l 1
 506 1190 592 1238 658 1288 c 1
 658 0 l 1
EndSplineSet
EndChar

StartChar: ordfeminine
Encoding: 170 170 75
Width: 745
VWidth: 0
GlyphClass: 2
Flags: W
HStem: 768 103<299 367> 1369 108<338.5 443>
VStem: 66 136<959.5 1043.5> 536 131
LayerCount: 2
Fore
SplineSet
317 768 m 0
 417 768 492 805 537 860 c 1
 543 786 l 1
 674 786 l 1
 669 846 667 870 667 914 c 2
 669 1235 l 1
 669 1400 558 1477 394 1477 c 0
 262 1477 162 1436 111 1350 c 1
 178 1275 l 1
 222 1340 289 1369 388 1369 c 0
 498 1369 536 1329 536 1219 c 2
 536 1211 l 1
 462 1201 383 1202 309 1192 c 1
 189 1174 66 1112 66 975 c 0
 66 944 72 916 85 890 c 0
 122 814 205 768 317 768 c 0
338 871 m 0
 260 871 202 899 202 977 c 0
 202 1115 424 1088 536 1110 c 1
 536 1085 l 1
 530 962 468 871 338 871 c 0
EndSplineSet
EndChar

StartChar: p
Encoding: 112 112 76
Width: 1179
VWidth: 0
GlyphClass: 2
Flags: W
HStem: -457 21<173 173> -22 136<548 657.5 525 732> 912 136<601 719>
VStem: 173 164<-457 24 -439 24 -439 646> 910 169<390 663>
AnchorPoint: "top" 790 1456 basechar 0
AnchorPoint: "bottom" 826 0 basechar 0
LayerCount: 2
Fore
SplineSet
173 -457 m 1
 337 -439 l 1
 337 24 l 1
 425 -7 509 -22 587 -22 c 0
 877 -22 1079 186 1079 543 c 0
 1079 853 922 1048 665 1048 c 0
 537 1048 392 989 300 829 c 1
 285 923 229 989 191 1018 c 1
 50 937 l 1
 99 899 173 812 173 646 c 2
 173 -457 l 1
336 166 m 1
 336 508 l 2
 336 790 484 912 630 912 c 0
 808 912 910 785 910 541 c 0
 910 239 754 114 561 114 c 0
 489 114 412 132 336 166 c 1
EndSplineSet
EndChar

StartChar: parenleft
Encoding: 40 40 77
Width: 626
VWidth: 0
GlyphClass: 2
Flags: W
LayerCount: 2
Fore
SplineSet
421 -214 m 1
 60 355 48 956 427 1551 c 1
 574 1551 l 1
 219 993 235 320 570 -214 c 1
 421 -214 l 1
EndSplineSet
EndChar

StartChar: parenright
Encoding: 41 41 78
Width: 626
VWidth: 0
GlyphClass: 2
Flags: W
LayerCount: 2
Fore
SplineSet
56 -214 m 1
 391 320 407 993 52 1551 c 1
 199 1551 l 1
 578 956 566 355 205 -214 c 1
 56 -214 l 1
EndSplineSet
EndChar

StartChar: percent
Encoding: 37 37 79
Width: 1968
VWidth: 0
GlyphClass: 2
Flags: W
HStem: -27 113<1426.5 1467.5> -5 21<440 594 594 594> 622 113<1419.5 1515> 686 113<450 547.5> 1335 112<498.5 542.5>
VStem: 168 144<1037.5 1138.5 991 1152> 734 143<996 1127.5> 1097 144<324.5 423.5 292 439.5> 1645 144<284 430.5>
LayerCount: 2
Fore
SplineSet
520 686 m 0
 575 686 624 696 668 716 c 0
 791 772 877 892 877 1068 c 0
 877 1294 753 1447 526 1447 c 0
 471 1447 421 1438 377 1418 c 0
 253 1363 168 1240 168 1064 c 0
 168 1011 176 961 192 915 c 0
 237 783 344 686 520 686 c 0
1441 -27 m 0
 1494 -27 1541 -17 1583 3 c 0
 1703 59 1789 180 1789 356 c 0
 1789 582 1665 735 1446 735 c 0
 1393 735 1345 725 1303 705 c 0
 1182 649 1097 528 1097 351 c 0
 1097 298 1105 248 1121 202 c 0
 1167 70 1272 -27 1441 -27 c 0
524 799 m 0
 376 799 312 917 312 1065 c 0
 312 1212 377 1335 525 1335 c 0
 560 1335 592 1328 618 1314 c 0
 695 1273 734 1186 734 1069 c 0
 734 923 670 799 524 799 c 0
1444 86 m 0
 1409 86 1378 93 1353 107 c 0
 1279 148 1241 234 1241 350 c 0
 1241 497 1303 622 1445 622 c 0
 1585 622 1645 504 1645 357 c 0
 1645 211 1585 86 1444 86 c 0
440 -5 m 1
 594 -5 l 1
 1489 1436 l 1
 1340 1436 l 1
 440 -5 l 1
EndSplineSet
EndChar

StartChar: period
Encoding: 46 46 80
Width: 540
VWidth: 0
GlyphClass: 2
Flags: W
HStem: -16 211<225 278>
VStem: 144 215<61.5 117.5 56 123>
LayerCount: 2
Fore
SplineSet
251 -16 m 0
 182 -16 144 33 144 90 c 0
 144 156 198 195 252 195 c 0
 321 195 359 146 359 89 c 0
 359 23 305 -16 251 -16 c 0
EndSplineSet
EndChar

StartChar: plus
Encoding: 43 43 81
Width: 1233
VWidth: 0
GlyphClass: 2
Flags: W
HStem: 675 139<120 541 120 544 692 1113>
VStem: 541 149<202 675 202 675>
LayerCount: 2
Fore
SplineSet
541 202 m 1
 541 675 l 1
 120 675 l 1
 120 814 l 1
 544 814 l 1
 544 1282 l 1
 692 1282 l 1
 692 814 l 1
 1113 814 l 1
 1113 675 l 1
 690 675 l 1
 690 202 l 1
 541 202 l 1
EndSplineSet
EndChar

StartChar: q
Encoding: 113 113 82
Width: 1171
VWidth: 0
GlyphClass: 2
Flags: W
HStem: -22 136<451 576> 912 136<535 687.5> 1006 20
VStem: 100 170<348 591 348 629> 891 164
LayerCount: 2
Fore
SplineSet
993 -519 m 2
 1327 -343 l 1
 1255 -221 l 1
 1003 -355 l 1
 1003 950 l 1
 923 1002 783 1048 654 1048 c 0
 322 1048 100 820 100 438 c 0
 100 162 268 -22 508 -22 c 0
 644 -22 763 28 839 153 c 1
 839 -406 l 2
 839 -523 940 -547 993 -519 c 2
529 114 m 0
 373 114 270 248 270 448 c 0
 270 734 419 912 651 912 c 0
 724 912 799 889 839 877 c 1
 839 476 l 2
 839 273 733 114 529 114 c 0
EndSplineSet
EndChar

StartChar: question
Encoding: 63 63 83
Width: 1025
VWidth: 0
GlyphClass: 2
Flags: W
HStem: 0 211<392 445> 1330 153
VStem: 311 213<77.5 133.5 72 139> 349 125<368 523 368 549> 716 169<957 1198>
LayerCount: 2
Fore
SplineSet
349 368 m 1
 474 368 l 1
 474 678 885 760 885 1133 c 0
 885 1338 734 1483 457 1483 c 0
 351 1483 256 1452 176 1413 c 1
 176 1262 l 1
 252 1305 361 1332 461 1330 c 0
 595 1328 716 1271 716 1125 c 0
 716 789 349 730 349 368 c 1
418 0 m 0
 472 0 524 39 524 105 c 0
 524 162 487 211 419 211 c 0
 365 211 311 172 311 106 c 0
 311 49 349 0 418 0 c 0
EndSplineSet
EndChar

StartChar: quotedbl
Encoding: 34 34 84
Width: 720
VWidth: 0
GlyphClass: 2
Flags: W
HStem: 931 525<150 150 150 259 439 547 439 439>
VStem: 114 455<1456 1456>
LayerCount: 2
Fore
SplineSet
150 931 m 1
 114 1456 l 1
 281 1456 l 1
 259 931 l 1
 150 931 l 1
439 931 m 1
 403 1456 l 1
 569 1456 l 1
 547 931 l 1
 439 931 l 1
EndSplineSet
EndChar

StartChar: quotesingle
Encoding: 39 39 85
Width: 554
VWidth: 0
GlyphClass: 2
Flags: W
HStem: 989 462<212 212 212 342>
VStem: 176 166<989 1451> 212 130<989 1451>
LayerCount: 2
Fore
SplineSet
212 989 m 1
 176 1451 l 1
 342 1451 l 1
 342 989 l 1
 212 989 l 1
EndSplineSet
EndChar

StartChar: r
Encoding: 114 114 86
Width: 784
VWidth: 0
GlyphClass: 2
Flags: W
HStem: 0 21<185 185 185 349> 907 141<554 654.5> 1005 20
VStem: 185 164<0 537 0 693 0 751>
AnchorPoint: "top" 487 1026 basechar 0
AnchorPoint: "bottom" 338 -3 basechar 0
LayerCount: 2
Fore
SplineSet
185 0 m 1
 185 693 l 2
 185 809 112 895 62 937 c 1
 203 1019 l 1
 251 977 297 920 312 830 c 1
 365 937 491 1048 617 1048 c 0
 700 1048 735 1038 771 1028 c 1
 757 883 l 1
 740 889 697 907 612 907 c 0
 468 907 349 772 349 537 c 2
 349 0 l 1
 185 0 l 1
EndSplineSet
EndChar

StartChar: registered
Encoding: 174 174 87
Width: 1774
VWidth: 0
GlyphClass: 2
Flags: W
HStem: -32 117<786 988 786 1006.5> 664 119<724 842> 1072 120<722 841 841 844 582 914.5> 1366 117<783 981.5>
VStem: 103 127<691.5 826.5 627 846.5> 582 142<273 664 273 664 273 1192> 1109 149<855 976.5 855 995.5> 1536 127<621.5 759.5 605 824>
LayerCount: 2
Fore
SplineSet
582 273 m 1
 724 273 l 1
 724 664 l 1
 856 664 l 1
 915 625 957 557 997 485 c 2
 1115 273 l 1
 1276 273 l 1
 1244 327 1217 375 1191 418 c 0
 1132 515 1078 609 1004 681 c 1
 1144 700 1258 775 1258 935 c 0
 1258 1018 1224 1082 1156 1126 c 0
 1088 1170 984 1192 844 1192 c 2
 582 1192 l 1
 582 273 l 1
887 -32 m 0
 1126 -32 1303 67 1430 192 c 0
 1554 313 1663 485 1663 725 c 0
 1663 794 1653 860 1634 924 c 0
 1593 1059 1519 1170 1430 1258 c 0
 1302 1383 1123 1483 881 1483 c 0
 642 1483 465 1385 337 1260 c 0
 213 1139 103 967 103 726 c 0
 103 657 113 590 132 526 c 0
 173 391 246 280 336 192 c 0
 464 67 645 -32 887 -32 c 0
886 85 m 0
 686 85 526 164 418 270 c 0
 313 373 230 527 230 727 c 0
 230 926 313 1079 418 1182 c 0
 525 1287 684 1366 882 1366 c 0
 1081 1366 1240 1285 1347 1180 c 0
 1452 1077 1536 924 1536 724 c 0
 1536 519 1454 372 1349 270 c 0
 1241 165 1090 85 886 85 c 0
722 783 m 1
 722 1072 l 1
 841 1072 l 2
 988 1072 1109 1071 1109 920 c 0
 1109 784 974 783 842 783 c 2
 722 783 l 1
EndSplineSet
EndChar

StartChar: s
Encoding: 115 115 88
Width: 876
VWidth: 0
GlyphClass: 2
Flags: W
HStem: -22 136<399 501 399 557> 912 136<401 502.5>
VStem: 111 164<726.5 818.5 726.5 864> 642 162<212 319.5>
AnchorPoint: "top" 500 1026 basechar 0
AnchorPoint: "bottom" 501 0 basechar 0
LayerCount: 2
Fore
SplineSet
462 -22 m 0
 296 -22 166 41 105 78 c 1
 156 208 l 1
 251 154 346 114 452 114 c 0
 550 114 642 157 642 267 c 0
 642 372 528 411 388 473 c 0
 248 534 111 598 111 773 c 0
 111 955 267 1048 445 1048 c 0
 587 1048 697 1006 769 965 c 1
 722 833 l 1
 660 868 548 912 457 912 c 0
 345 912 275 862 275 775 c 0
 275 678 375 647 523 581 c 1
 673 519 804 450 804 279 c 0
 804 85 652 -22 462 -22 c 0
EndSplineSet
EndChar

StartChar: section
Encoding: 167 167 89
Width: 1082
VWidth: 0
GlyphClass: 2
Flags: W
HStem: -48 137<428 520.5 422 531> 1356 137<545.5 637.5 497 638.5>
VStem: 185 177<713 786 697 794> 221 171<1180.5 1274.5 1180.5 1316.5> 701 172<232 282.5> 718 178<713 754.5 671.5 784.5>
LayerCount: 2
Fore
SplineSet
477 -48 m 0
 585 -48 682 -18 750 30 c 0
 816 76 873 146 873 252 c 0
 873 378 795 437 710 480 c 1
 793 531 896 606 896 737 c 0
 896 772 887 804 871 832 c 0
 797 957 625 1001 500 1072 c 0
 444 1104 392 1140 392 1221 c 0
 392 1328 493 1356 598 1356 c 0
 679 1356 759 1332 819 1304 c 1
 817 1452 l 1
 742 1475 682 1493 593 1493 c 0
 401 1493 221 1416 221 1217 c 0
 221 1090 289 1027 374 975 c 1
 286 931 185 859 185 729 c 0
 185 697 191 667 202 640 c 0
 240 547 327 494 419 454 c 1
 499 418 l 2
 531 404 560 391 585 379 c 0
 641 352 701 322 701 243 c 0
 701 221 697 201 686 182 c 0
 651 119 569 89 472 89 c 0
 372 89 293 116 210 153 c 1
 212 4 l 1
 288 -27 379 -48 477 -48 c 0
582 547 m 1
 549 561 520 574 493 587 c 0
 432 616 362 653 362 741 c 0
 362 831 432 880 490 912 c 1
 567 868 718 846 718 723 c 0
 718 703 715 685 706 668 c 0
 680 615 629 578 582 547 c 1
EndSplineSet
EndChar

StartChar: semicolon
Encoding: 59 59 90
Width: 540
VWidth: 0
GlyphClass: 2
Flags: W
HStem: 816 210<159 376 159 376>
VStem: 159 217<816 1026 816 1026>
LayerCount: 2
Fore
SplineSet
100 -256 m 1
 206 207 l 1
 394 207 l 1
 231 -256 l 1
 100 -256 l 1
159 816 m 1
 159 1026 l 1
 376 1026 l 1
 376 816 l 1
 159 816 l 1
EndSplineSet
EndChar

StartChar: seven
Encoding: 55 55 91
Width: 1234
VWidth: 0
GlyphClass: 2
Flags: W
HStem: 0 21<351 351 351 537> 1311 145<153 917 153 1109>
LayerCount: 2
Fore
SplineSet
351 0 m 1
 917 1311 l 1
 153 1311 l 1
 153 1456 l 1
 1109 1456 l 1
 1109 1365 l 1
 537 0 l 1
 351 0 l 1
EndSplineSet
EndChar

StartChar: six
Encoding: 54 54 92
Width: 1225
VWidth: 0
GlyphClass: 2
Flags: W
HStem: -22 142<539 735.5 539 773.5> 810 136<608 734.5> 1351 133<869 903>
VStem: 934 167<356.5 555.5>
LayerCount: 2
Fore
SplineSet
649 -22 m 0
 898 -22 1101 175 1101 464 c 0
 1101 735 918 946 661 946 c 0
 555 946 381 890 316 768 c 1
 367 1072 566 1304 903 1351 c 1
 869 1484 l 1
 277 1391 114 890 142 501 c 0
 161 240 305 -22 649 -22 c 0
647 120 m 0
 431 120 309 292 309 469 c 0
 309 660 447 810 632 810 c 0
 837 810 934 652 934 459 c 0
 934 254 824 120 647 120 c 0
EndSplineSet
EndChar

StartChar: slash
Encoding: 47 47 93
Width: 853
VWidth: 0
GlyphClass: 2
Flags: W
HStem: 0 21<31 31 31 194> 1436 20<656 823 823 823>
LayerCount: 2
Fore
SplineSet
31 0 m 1
 656 1456 l 1
 823 1456 l 1
 194 0 l 1
 31 0 l 1
EndSplineSet
EndChar

StartChar: sterling
Encoding: 163 163 95
Width: 1174
VWidth: 0
GlyphClass: 2
Flags: W
HStem: 0 141<370 1066 370 1066 370 1066> 690 142<114 296 114 297 114 297 468 785> 1307 141<625 778.5>
VStem: 297 171<641 690 641 690>
LayerCount: 2
Fore
SplineSet
115 0 m 1
 1066 0 l 1
 1066 141 l 1
 370 141 l 1
 386 154 400 171 411 194 c 0
 466 305 468 476 468 641 c 2
 468 690 l 1
 785 690 l 1
 785 832 l 1
 466 832 l 1
 463 947 l 1
 463 1156 525 1307 725 1307 c 0
 832 1307 925 1280 995 1237 c 1
 1047 1357 l 1
 970 1418 861 1448 722 1448 c 0
 380 1448 294 1211 294 861 c 0
 294 851 295 842 296 832 c 1
 114 832 l 1
 114 690 l 1
 297 690 l 1
 297 440 l 2
 297 272 218 199 114 138 c 1
 115 0 l 1
EndSplineSet
EndChar

StartChar: t
Encoding: 116 116 96
Width: 819
VWidth: 0
GlyphClass: 2
Flags: W
HStem: -8 127<515 587.5> 919 107<30 233 233 233 394 728>
VStem: 233 161<300 919>
AnchorPoint: "top" 500 1026 basechar 0
AnchorPoint: "bottom" 501 0 basechar 0
LayerCount: 2
Fore
SplineSet
559 -8 m 0
 616 -8 727 13 790 35 c 1
 771 158 l 1
 724 140 624 119 578 119 c 0
 452 119 397 173 397 298 c 2
 394 919 l 1
 728 919 l 1
 728 1026 l 1
 394 1026 l 1
 394 1366 l 1
 238 1336 l 1
 238 1026 l 1
 30 1026 l 1
 30 919 l 1
 233 919 l 1
 233 300 l 2
 233 84 333 -8 559 -8 c 0
EndSplineSet
EndChar

StartChar: three
Encoding: 51 51 97
Width: 1226
VWidth: 0
GlyphClass: 2
Flags: W
HStem: -23 164 683 161 1322 161
VStem: 874 187 909 188
LayerCount: 2
Fore
SplineSet
602.626 -23 m 0
 378.552 -23 216.08 72.0625 203.136 80.042 c 1
 255.864 230.682 l 1
 300.724 206.745 435.786 140.647 592.371 140.647 c 0
 778.178 140.647 909.43 241.133 909.43 408.706 c 0
 909.43 603.944 756.252 685.43 514.745 683.745 c 2
 443.273 683.252 l 1
 441.273 844.042 l 1
 504.801 844.042 l 2
 737.035 844.042 874.395 903.849 874.395 1106.12 c 0
 874.395 1250.71 732.608 1321.51 584.528 1321.51 c 0
 420.035 1321.51 312.534 1250.33 245.433 1189.08 c 1
 157.706 1315.57 l 1
 265.312 1428.53 409.315 1483 607.042 1483 c 0
 835.413 1483 1061.75 1354.69 1061.75 1109.82 c 0
 1061.75 937.899 970.469 809.944 798.077 765.65 c 1
 988.113 726.843 1097.91 592.979 1097.91 403.878 c 0
 1097.91 138 878.077 -23 602.626 -23 c 0
EndSplineSet
EndChar

StartChar: two
Encoding: 50 50 98
Width: 1244
VWidth: 0
GlyphClass: 2
Flags: W
HStem: 0 176 1301 180
VStem: 831 208
LayerCount: 2
Fore
SplineSet
599.05 1481.65 m 0
 852.867 1481.65 1032.07 1311.57 1039.07 1053.34 c 0
 1045.37 840.827 952 677 762 485 c 2
 456.85 176.25 l 1
 1033.1 176.25 l 1
 1033.1 0 l 1
 203.1 0 l 1
 203.1 165 l 1
 624 613 l 2
 784 783 839.269 908.679 831.219 1049.85 c 1
 824.219 1203.96 731.421 1301.35 584.25 1301.35 c 0
 387.35 1301.35 222.5 1174 222.15 1174 c 2
 153.85 1339.95 l 1
 153.85 1339.95 328.55 1481.65 599.05 1481.65 c 0
EndSplineSet
EndChar

StartChar: u
Encoding: 117 117 99
Width: 1219
VWidth: 0
GlyphClass: 2
Flags: W
HStem: -22 136<496 606> -3 138<1133 1149> 1006 20<273 273 844 1008 844 844>
VStem: 161 165<365 365> 844 164<328.5 427 427 1026>
AnchorPoint: "top" 612 1026 basechar 0
AnchorPoint: "bottom" 599 0 basechar 0
AnchorPoint: "ogonek" 959 0 basechar 0
LayerCount: 2
Fore
SplineSet
530 -22 m 0
 682 -22 794 40 869 164 c 1
 881 43 976 -33 1133 -3 c 1
 1149 135 l 1
 1057 115 1008 156 1008 302 c 2
 1008 1026 l 1
 844 1026 l 1
 844 427 l 2
 844 230 712 114 554 114 c 0
 438 114 321 167 326 365 c 2
 332 595 l 2
 341 941 273 1026 273 1026 c 1
 108 1000 l 1
 108 1000 176 901 167 582 c 2
 161 365 l 2
 153 80 344 -22 530 -22 c 0
EndSplineSet
EndChar

StartChar: underscore
Encoding: 95 95 100
Width: 977
VWidth: 0
GlyphClass: 2
Flags: W
HStem: -273 128<-5 978 -5 978>
LayerCount: 2
Fore
SplineSet
-5 -273 m 1
 -5 -145 l 1
 978 -145 l 1
 978 -273 l 1
 -5 -273 l 1
EndSplineSet
EndChar

StartChar: v
Encoding: 118 118 103
Width: 1040
VWidth: 0
GlyphClass: 2
Flags: W
HStem: 0 21<438 438 438 606> 1006 20<16 198 198 198 847 1024 1024 1024>
LayerCount: 2
Fore
SplineSet
438 0 m 1
 16 1026 l 1
 198 1026 l 1
 472 336 l 2
 491 290 514 217 530 163 c 1
 561 264 574 309 586 336 c 1
 847 1026 l 1
 1024 1026 l 1
 606 0 l 1
 438 0 l 1
EndSplineSet
EndChar

StartChar: w
Encoding: 119 119 104
Width: 1664
VWidth: 0
GlyphClass: 2
Flags: W
HStem: 0 21<391 553 553 553 1111 1271 1271 1271> 1006 20<26 202 26 26 767 926 767 767 1470 1639 1470 1470>
AnchorPoint: "top" 843 1024 basechar 0
AnchorPoint: "bottom" 840 0 basechar 0
LayerCount: 2
Fore
SplineSet
391 0 m 1
 553 0 l 1
 841 831 l 1
 1111 0 l 1
 1271 0 l 1
 1639 1026 l 1
 1470 1026 l 1
 1230 287 l 1
 1218 255 1209 219 1196 189 c 1
 1186 219 1177 258 1167 286 c 2
 926 1026 l 1
 767 1026 l 1
 511 276 l 1
 499 249 490 214 480 186 c 1
 470 217 461 255 451 284 c 2
 202 1026 l 1
 26 1026 l 1
 391 0 l 1
EndSplineSet
EndChar

StartChar: x
Encoding: 120 120 105
Width: 1063
VWidth: 0
GlyphClass: 2
Flags: W
HStem: 0 21<48 48 48 238 814 814 814 1015> 1006 20<67 269 269 269 823 1002 1002 1002>
LayerCount: 2
Fore
SplineSet
48 0 m 1
 440 514 l 1
 67 1026 l 1
 269 1026 l 1
 545 626 l 1
 823 1026 l 1
 1002 1026 l 1
 632 518 l 1
 1015 0 l 1
 814 0 l 1
 530 408 l 1
 238 0 l 1
 48 0 l 1
EndSplineSet
EndChar

StartChar: y
Encoding: 121 121 106
Width: 1208
VWidth: 0
GlyphClass: 2
Flags: W
HStem: -494 137<510.5 645.5 502.5 702.5> -22 136<529 631> 1006 20<295 295 880 1044 880 880>
VStem: 161 165 848 164
AnchorPoint: "top" 544 1024 basechar 0
LayerCount: 2
Fore
SplineSet
559 -494 m 0
 846 -494 1044 -306 1044 -23 c 2
 1044 1026 l 1
 880 1026 l 1
 880 427 l 2
 880 230 745 114 587 114 c 0
 471 114 343 167 348 365 c 2
 354 595 l 2
 363 941 295 1026 295 1026 c 1
 130 1000 l 1
 130 1000 198 901 189 582 c 2
 183 365 l 2
 175 80 377 -22 563 -22 c 0
 699 -22 806 28 880 128 c 1
 880 -44 l 2
 880 -232 746 -357 545 -357 c 0
 460 -357 342 -326 250 -280 c 1
 231 -433 l 1
 332 -470 462 -494 559 -494 c 0
EndSplineSet
EndChar

StartChar: yen
Encoding: 165 165 107
Width: 1235
VWidth: 0
GlyphClass: 2
Flags: W
HStem: 0 21<526 526 526 698> 283 140<147 526 147 526 698 698 698 1072> 574 142<141 447 141 526 141 447 769 1069> 1436 20<4 195 195 195 1031 1222 1222 1222>
VStem: 526 172<0 283 0 283 0 574>
LayerCount: 2
Fore
SplineSet
526 0 m 1
 526 283 l 1
 147 283 l 1
 147 423 l 1
 526 423 l 1
 526 574 l 1
 141 574 l 1
 141 716 l 1
 447 716 l 1
 4 1456 l 1
 195 1456 l 1
 611 727 l 1
 1031 1456 l 1
 1222 1456 l 1
 769 716 l 1
 1069 716 l 1
 1069 574 l 1
 691 574 l 1
 691 423 l 1
 1072 423 l 1
 1079 283 l 1
 698 283 l 1
 698 0 l 1
 526 0 l 1
EndSplineSet
EndChar

StartChar: z
Encoding: 122 122 108
Width: 965
VWidth: 0
GlyphClass: 2
Flags: W
HStem: 0 134<305 906 305 906> 891 135<106 666 106 889>
AnchorPoint: "top" 506 1024 basechar 0
AnchorPoint: "bottom" 555 0 basechar 0
LayerCount: 2
Fore
SplineSet
80 0 m 1
 80 89 l 1
 666 891 l 1
 106 891 l 1
 106 1026 l 1
 889 1026 l 1
 889 939 l 1
 305 134 l 1
 906 134 l 1
 906 0 l 1
 80 0 l 1
EndSplineSet
EndChar

StartChar: zero
Encoding: 48 48 109
Width: 1223
VWidth: 0
GlyphClass: 2
Flags: W
HStem: -25 152<475.5 737.5 475.5 790> 1331 152<484.5 748>
VStem: 116 184<582.5 863 582.5 922.5> 923 184<591 869>
LayerCount: 2
Fore
SplineSet
612 127 m 0
 863 127 923 456 923 726 c 0
 923 1012 884 1331 612 1331 c 0
 357 1331 300 1000 300 726 c 0
 300 439 339 127 612 127 c 0
607 -25 m 0
 232 -25 116 335 116 726 c 0
 116 1119 240 1483 612 1483 c 0
 1004 1483 1107 1133 1107 726 c 0
 1107 341 973 -25 607 -25 c 0
EndSplineSet
EndChar
